<svg width="416" height="360" viewBox="0 0 416 360" fill="none" xmlns="http://www.w3.org/2000/svg">
<path d="M8.58307e-07 140L311.769 320L311.769 360L-2.29131e-08 180L8.58307e-07 140Z" fill="#DADADA"/>
<rect width="120" height="40" transform="matrix(0.866025 -0.5 2.20305e-08 1 311.769 320)" fill="#ECECEC"/>
<path d="M103.923 80L415.692 260L311.769 320L9.85369e-05 140L103.923 80Z" fill="#F5F5F5"/>
<path d="M2.86102e-07 100L103.923 160L103.923 200L-5.95118e-07 140L2.86102e-07 100Z" fill="#DADADA"/>
<rect width="120" height="40" transform="matrix(0.866025 -0.5 2.20305e-08 1 103.923 160)" fill="#ECECEC"/>
<path d="M103.923 40L207.846 100L103.923 160L4.98904e-05 100L103.923 40Z" fill="#F5F5F5"/>
<path d="M2.86102e-07 60L103.923 120L103.923 160L-5.95118e-07 100L2.86102e-07 60Z" fill="#DADADA"/>
<rect width="120" height="40" transform="matrix(0.866025 -0.5 2.20305e-08 1 103.923 120)" fill="#ECECEC"/>
<path d="M103.923 -7.15256e-06L207.846 60L103.923 120L4.98904e-05 60L103.923 -7.15256e-06Z" fill="#F5F5F5"/>
<path d="M103.923 160L207.846 220L207.846 260L103.923 200L103.923 160Z" fill="#DADADA"/>
<rect width="120" height="40" transform="matrix(0.866025 -0.5 2.20305e-08 1 207.846 220)" fill="#ECECEC"/>
<path d="M207.846 100L311.769 160L207.846 220L103.923 160L207.846 100Z" fill="#F5F5F5"/>
</svg>
